<svg xmlns="http://www.w3.org/2000/svg" viewBox="0 0 500 500"><g id="freepik--Shadow--inject-57"><ellipse cx="250.599" cy="435.988" rx="223.432" ry="12.388" style="fill:#f5f5f5;"></ellipse></g><g id="freepik--Computer--inject-57"><g><rect x="115.863" y="82.466" width="269.13" height="226.166" style="fill:#3B59A5;"></rect><rect x="145.185" y="113.735" width="209.546" height="162.591" style="fill:#263238;"></rect><rect x="183.13" y="308.632" width="139.595" height="22.58" style="fill:#3B59A5;"></rect><rect x="165.937" y="331.211" width="173.98" height="14.261" style="fill:#3B59A5;"></rect><rect x="108.324" y="345.472" width="283.268" height="76.082" style="fill:#3B59A5;"></rect><path d="M229.295,372.858H117.227v-15.315h112.068v15.315Zm-111.318-.75h110.568v-13.815H117.977v13.815Z" style="fill:#263238;"></path><rect x="210.194" y="376.698" width="18.726" height="6.521" rx="3.048" ry="3.048" style="opacity:.4;"></rect><circle cx="202.11" cy="379.958" r="2.967" style="fill:#fff; opacity:.4;"></circle><rect x="295.269" y="362.049" width="89.297" height="6.304" style="opacity:.4;"></rect><rect x="367.827" y="373.72" width="16.739" height="5.955" style="fill:#fff; opacity:.4;"></rect><path d="M346.864,405.611c0,1.424-1.155,2.579-2.579,2.579s-2.579-1.155-2.579-2.579,1.155-2.579,2.579-2.579,2.579,1.155,2.579,2.579Z" style="opacity:.4;"></path><path d="M353.838,405.611c0,1.424-1.155,2.579-2.579,2.579s-2.579-1.155-2.579-2.579,1.155-2.579,2.579-2.579,2.579,1.155,2.579,2.579Z" style="opacity:.4;"></path><path d="M360.812,405.611c0,1.424-1.155,2.579-2.579,2.579s-2.579-1.155-2.579-2.579,1.155-2.579,2.579-2.579,2.579,1.155,2.579,2.579Z" style="opacity:.4;"></path><path d="M368.32,399.934c3.135-3.135,8.218-3.135,11.354,0,3.135,3.135,3.135,8.219,0,11.354-3.135,3.135-8.218,3.135-11.354,0-3.135-3.135-3.135-8.218,0-11.354Z" style="opacity:.4;"></path><rect x="165.937" y="331.211" width="173.98" height="14.261" style="opacity:.4;"></rect><rect x="119.417" y="397.537" width=".75" height="10.348" style="opacity:.4;"></rect><rect x="123.105" y="397.537" width=".75" height="10.348" style="opacity:.4;"></rect><rect x="126.794" y="397.537" width=".75" height="10.348" style="opacity:.4;"></rect><rect x="130.483" y="397.537" width=".75" height="10.348" style="opacity:.4;"></rect><rect x="134.171" y="397.537" width=".75" height="10.348" style="opacity:.4;"></rect><rect x="137.86" y="397.537" width=".75" height="10.348" style="opacity:.4;"></rect><rect x="141.549" y="397.537" width=".75" height="10.348" style="opacity:.4;"></rect><rect x="145.237" y="397.537" width=".75" height="10.348" style="opacity:.4;"></rect><rect x="148.926" y="397.537" width=".75" height="10.348" style="opacity:.4;"></rect><rect x="152.615" y="397.537" width=".75" height="10.348" style="opacity:.4;"></rect><rect x="156.303" y="397.537" width=".75" height="10.348" style="opacity:.4;"></rect><rect x="159.992" y="397.537" width=".75" height="10.348" style="opacity:.4;"></rect><rect x="163.681" y="397.537" width=".75" height="10.348" style="opacity:.4;"></rect><rect x="167.37" y="397.537" width=".75" height="10.348" style="opacity:.4;"></rect><rect x="171.058" y="397.537" width=".75" height="10.348" style="opacity:.4;"></rect><rect x="174.747" y="397.537" width=".75" height="10.348" style="opacity:.4;"></rect><rect x="178.436" y="397.537" width=".75" height="10.348" style="opacity:.4;"></rect><rect x="182.124" y="397.537" width=".75" height="10.348" style="opacity:.4;"></rect><rect x="185.813" y="397.537" width=".75" height="10.348" style="opacity:.4;"></rect><rect x="189.501" y="397.537" width=".75" height="10.348" style="opacity:.4;"></rect><rect x="193.19" y="397.537" width=".75" height="10.348" style="opacity:.4;"></rect><rect x="196.879" y="397.537" width=".75" height="10.348" style="opacity:.4;"></rect><rect x="200.567" y="397.537" width=".75" height="10.348" style="opacity:.4;"></rect><rect x="204.256" y="397.537" width=".75" height="10.348" style="opacity:.4;"></rect><rect x="207.945" y="397.537" width=".75" height="10.348" style="opacity:.4;"></rect><rect x="211.634" y="397.537" width=".75" height="10.348" style="opacity:.4;"></rect><rect x="215.322" y="397.537" width=".75" height="10.348" style="opacity:.4;"></rect><rect x="219.011" y="397.537" width=".75" height="10.348" style="opacity:.4;"></rect><rect x="222.7" y="397.537" width=".75" height="10.348" style="opacity:.4;"></rect><rect x="226.388" y="397.537" width=".75" height="10.348" style="opacity:.4;"></rect><rect x="230.077" y="397.537" width=".75" height="10.348" style="opacity:.4;"></rect><polygon points="183.13 308.632 322.724 308.632 322.724 316.241 183.175 315.954 183.13 308.632" style="opacity:.4;"></polygon><polygon points="145.185 276.325 137.286 282.329 362.63 282.329 354.731 276.325 145.185 276.325" style="opacity:.4;"></polygon><polygon points="354.731 113.735 362.63 106.23 137.286 106.23 145.185 113.735 354.731 113.735" style="opacity:.4;"></polygon><polygon points="354.731 276.325 362.63 282.329 362.63 106.23 354.731 113.735 354.731 276.325" style="fill:#fff; opacity:.4;"></polygon><polygon points="145.185 276.325 137.286 282.329 137.286 106.23 145.185 113.735 145.185 276.325" style="fill:#fff; opacity:.4;"></polygon><path d="M152.99,118.853c-.778,1.751-5.644,147.708,0,150.627,5.644,2.919,191.519,4.087,195.204,2.335s2.973-149.219-1.947-152.532c-5.742-3.867-193.258-.431-193.258-.431Z" style="fill:#fff; opacity:.2;"></path><path d="M384.938,368.728h-90.044v-6.862h90.115l-.071,6.862Zm-89.294-.75h88.552l.056-5.362h-88.607v5.362Z" style="fill:#263238;"></path><rect x="108.324" y="390.945" width="283.268" height=".75" style="opacity:.4;"></rect></g></g><g id="freepik--Tab--inject-57"><g><rect x="182.297" y="168.797" width="145.064" height="53.503" style="fill:#3B59A5;"></rect><rect x="182.297" y="168.797" width="145.064" height="53.503" style="fill:#fff; opacity:.7;"></rect><rect x="182.297" y="168.797" width="145.064" height="9.928" style="fill:#3B59A5;"></rect><path d="M325.102,176.696h-7.95v-7.039h7.95v7.039Zm-7.2-.75h6.45v-5.539h-6.45v5.539Z"></path><g><rect x="318.533" y="172.853" width="5.083" height=".751" transform="translate(-28.354 278.093) rotate(-45.053)"></rect><rect x="320.806" y="170.61" width=".751" height="5.237" transform="translate(-25.244 287.922) rotate(-46.659)"></rect></g><g><rect x="190.278" y="196.927" width="3.453" height="10.568" style="fill:#3B59A5;"></rect><g><path d="M321.636,209.344H188.022v-14.17h133.613v14.17Zm-132.863-.75h132.113v-12.67H188.772v12.67Z"></path><rect x="196.138" y="196.927" width="3.453" height="10.568" style="fill:#3B59A5;"></rect><rect x="201.997" y="196.927" width="3.453" height="10.568" style="fill:#3B59A5;"></rect><rect x="207.856" y="196.927" width="3.453" height="10.568" style="fill:#3B59A5;"></rect><rect x="213.716" y="196.927" width="3.453" height="10.568" style="fill:#3B59A5;"></rect><rect x="219.575" y="196.927" width="3.453" height="10.568" style="fill:#3B59A5;"></rect><rect x="225.435" y="196.927" width="3.453" height="10.568" style="fill:#3B59A5;"></rect><rect x="231.294" y="196.927" width="3.453" height="10.568" style="fill:#3B59A5;"></rect><rect x="237.154" y="196.927" width="3.453" height="10.568" style="fill:#3B59A5;"></rect><rect x="243.013" y="196.927" width="3.453" height="10.568" style="fill:#3B59A5;"></rect><rect x="248.872" y="196.927" width="3.453" height="10.568" style="fill:#3B59A5;"></rect><rect x="254.732" y="196.927" width="3.453" height="10.568" style="fill:#3B59A5;"></rect><rect x="190.56" y="197.676" width="128.067" height=".75" style="fill:#fff;"></rect></g></g><polygon points="317.526 176.321 317.526 177.046 325.424 177.046 325.424 170.032 324.727 170.032 324.727 176.321 317.526 176.321" style="opacity:.3;"></polygon><polygon points="190.278 208.969 190.278 210.944 322.872 210.944 322.872 195.549 321.261 195.549 321.261 208.969 190.278 208.969" style="opacity:.3;"></polygon></g></g><g id="freepik--Mouse--inject-57"><g><path d="M414.061,421.256h14.573c7.601,0,13.772,6.171,13.772,13.772v.96h-42.118v-.96c0-7.601,6.171-13.772,13.772-13.772Z" style="fill:#3B59A5;"></path><path d="M441.853,434.668h-40.919c-.207,0-.375-.168-.375-.375s.168-.375,.375-.375h40.919c.207,0,.375,.168,.375,.375s-.168,.375-.375,.375Z" style="opacity:.2;"></path></g></g><g id="freepik--Keyboard--inject-57"><g><rect x="46.822" y="413.89" width="19.372" height="6.621" style="fill:#3B59A5;"></rect><rect x="46.822" y="413.89" width="19.372" height="6.621" style="opacity:.4;"></rect><rect x="70.876" y="413.89" width="13.501" height="6.621" style="fill:#3B59A5;"></rect><rect x="70.876" y="413.89" width="13.501" height="6.621" style="opacity:.4;"></rect><rect x="89.116" y="413.89" width="13.501" height="6.621" style="fill:#3B59A5;"></rect><rect x="89.116" y="413.89" width="13.501" height="6.621" style="opacity:.4;"></rect><rect x="107.356" y="413.89" width="13.501" height="6.621" style="fill:#3B59A5;"></rect><rect x="107.356" y="413.89" width="13.501" height="6.621" style="opacity:.4;"></rect><rect x="197.462" y="413.89" width="10.374" height="6.621" style="fill:#3B59A5;"></rect><rect x="197.462" y="413.89" width="10.374" height="6.621" style="opacity:.4;"></rect><rect x="212.812" y="413.89" width="10.374" height="6.621" style="fill:#3B59A5;"></rect><rect x="212.812" y="413.89" width="10.374" height="6.621" style="opacity:.4;"></rect><rect x="228.162" y="413.89" width="10.374" height="6.621" style="fill:#3B59A5;"></rect><rect x="228.162" y="413.89" width="10.374" height="6.621" style="opacity:.4;"></rect><rect x="243.511" y="413.89" width="10.374" height="6.621" style="fill:#3B59A5;"></rect><rect x="243.511" y="413.89" width="10.374" height="6.621" style="opacity:.4;"></rect><rect x="285.103" y="413.89" width="10.374" height="6.621" style="fill:#3B59A5;"></rect><rect x="285.103" y="413.89" width="10.374" height="6.621" style="opacity:.4;"></rect><rect x="300.234" y="413.89" width="10.374" height="6.621" style="fill:#3B59A5;"></rect><rect x="300.234" y="413.89" width="10.374" height="6.621" style="opacity:.4;"></rect><rect x="315.365" y="413.89" width="10.374" height="6.621" style="fill:#3B59A5;"></rect><rect x="315.365" y="413.89" width="10.374" height="6.621" style="opacity:.4;"></rect><rect x="330.496" y="413.89" width="28.056" height="6.621" style="fill:#3B59A5;"></rect><rect x="330.496" y="413.89" width="28.056" height="6.621" style="opacity:.4;"></rect><rect x="258.861" y="413.89" width="20.202" height="6.621" style="fill:#3B59A5;"></rect><rect x="258.861" y="413.89" width="20.202" height="6.621" style="opacity:.4;"></rect><rect x="125.596" y="413.89" width="66.398" height="6.621" style="fill:#3B59A5;"></rect><rect x="125.596" y="413.89" width="66.398" height="6.621" style="opacity:.4;"></rect><rect x="41.677" y="419.257" width="322.218" height="13.702" style="fill:#3B59A5;"></rect><rect x="41.677" y="419.257" width="322.218" height="13.702" style="opacity:.3;"></rect><rect x="42.778" y="428.247" width="320.38" height=".75" style="opacity:.2;"></rect></g></g></svg>
